<?xml version="1.0" standalone="no"?><!DOCTYPE svg PUBLIC "-//W3C//DTD SVG 1.1//EN" "http://www.w3.org/Graphics/SVG/1.1/DTD/svg11.dtd"><svg t="1747577960633" class="icon" viewBox="0 0 1141 1024" version="1.1" xmlns="http://www.w3.org/2000/svg" p-id="2472" xmlns:xlink="http://www.w3.org/1999/xlink" width="222.8515625" height="200"><path d="M637.398033 30.384262L244.46741 85.613115C125.112656 102.4 41.967213 212.740197 58.754098 332.094951L124.155803 797.544918c16.770098 119.354754 127.127082 202.516984 246.481836 185.746885l392.913836-55.228852c119.354754-16.786885 202.500197-127.127082 185.730099-246.481836l-65.418492-465.449967C867.092984 96.776393 756.752787 13.597377 637.398033 30.384262z" fill="#FFFFFF" p-id="2473"></path><path d="M644.398164 80.258098c91.824262-12.892328 176.698754 51.065705 189.591082 142.873181l65.418492 465.466754c12.909115 91.807475-51.065705 176.698754-142.856394 189.591082l-392.930623 55.228852c-91.824262 12.909115-176.698754-51.065705-189.591082-142.87318L108.611148 325.078033C95.685246 233.270557 159.676852 148.396066 251.467541 135.486951l392.930623-55.228853z" fill="#F5F5FF" p-id="2474"></path><path d="M923.278689 0H526.503869c-120.529836 0-218.229508 97.699672-218.229508 218.229508v470.032787c0 120.529836 97.699672 218.229508 218.229508 218.229508H923.278689c120.529836 0 218.229508-97.699672 218.229508-218.229508V218.229508c0-120.529836-97.699672-218.229508-218.229508-218.229508z" fill="#FFFFFF" p-id="2475"></path><path d="M996.335213 441.528656c-50.310295-50.041705-107.536787-50.041705-157.847082 0L420.276459 858.615607l-6.714754 6.664393h561.756328c73.778361 0 134.144-60.046689 134.144-133.422164v-158.468197l-113.143607-131.860983z" fill="#5046B9" p-id="2476"></path><path d="M871.390426 865.28l-271.930754-283.194754a120.61377 120.61377 0 0 0-174.365377 0L340.320525 671.492197v61.272131c0 72.888656 57.579016 132.498885 127.966426 132.498885h403.103475z" fill="#776DDD" p-id="2477"></path><path d="M486.819672 251.803279a73.257967 73.257967 0 1 0 146.499148 0A73.257967 73.257967 0 0 0 486.819672 251.803279z" fill="#5046B9" p-id="2478"></path></svg>